# xmcd
#
# Track frame offsets:
#	225
#	10368
#	20852
#	33510
#	51776
#	62280
#	70647
#	83969
#	94668
#	107775
#	119964
#	131650
#	141363
#	153294
#	167010
#	180474
#	192627
#	208955
#	222139
#	236281
#	246970
#	262028
#	277028
#	288057
#	299661
#	309716
#
# Disc length: 4286 seconds
#
# Revision: 0
# Processed by: cddbd v1.4PL0 Copyright (c) Steve Scherf et al.
# Submitted via: EasyCDDAExtractor 4.6.0.1
#
DISCID=9510bb1a
DTITLE=Various Artist - Velkej vandr
DYEAR=1997
DGENRE=Country
TTITLE0=Zlatokop Tom
TTITLE1=Mame v kapse vejplatu
TTITLE2=Treseme se v lese
TTITLE3=Miriam
TTITLE4=Ztraceny raj
TTITLE5=O, luno ma
TTITLE6=Mexiko
TTITLE7=Zivot jde dal
TTITLE8=Dva tulaci
TTITLE9=Uniformy
TTITLE10=Stara ztezka
TTITLE11=Swing drink
TTITLE12=Tak se toulam
TTITLE13=General
TTITLE14=Krinolina
TTITLE15=Orionoko
TTITLE16=Indian
TTITLE17=Tak uz mi ma holka mava
TTITLE18=Niagara
TTITLE19=Usmej se srdcova damo
TTITLE20=San Ariano
TTITLE21=Pulnocni vlak
TTITLE22=Az pujdes kolem hrbitova
TTITLE23=Cariboo
TTITLE24=Prsi, jejej to prsi
TTITLE25=Taborovy ohen
EXTD=
EXTT0=
EXTT1=
EXTT2=
EXTT3=
EXTT4=
EXTT5=
EXTT6=
EXTT7=
EXTT8=
EXTT9=
EXTT10=
EXTT11=
EXTT12=
EXTT13=
EXTT14=
EXTT15=
EXTT16=
EXTT17=
EXTT18=
EXTT19=
EXTT20=
EXTT21=
EXTT22=
EXTT23=
EXTT24=
EXTT25=
PLAYORDER=
